# xmcd CD database file
#
# Track frame offsets:
#	150
#	18696
#	33809
#	49390
#	71664
#	92958
#	116645
#	131215
#	152026
#	174922
#	192508
#	214831
#	217331
#	239791
#	257571
#	277090
#	302586
#	306567
#	323764
#	340113
#
# Disc length: 4770 seconds
#
# Revision: 1
# Processed by: cddbd v1.4PL0 Copyright (c) Steve Scherf et al.
# Submitted via: CDex 1.40Beta9
#
DISCID=3f12a014
DTITLE=Zucchero - Shake and Bonus Album
DYEAR=2001
DGENRE=Blues
TTITLE0=baila sexy thing
TTITLE1=music in me
TTITLE2=porca l'oca
TTITLE3=I lay down (with john lee hooker)
TTITLE4=I'm in trouble
TTITLE5=sparrkling meadows
TTITLE6=sento le campane
TTITLE7=bell' amore mio
TTITLE8=rossa mela della sera
TTITLE9=shake
TTITLE10=lost scents
TTITLE11=introduction
TTITLE12=rispetto
TTITLE13=come il sole all 'improvviso
TTITLE14=tra uomo e donna
TTITLE15=nella casa c'era
TTITLE16=una ragione per vivere
TTITLE17=solo, seduto sulla
TTITLE18=torna a casa
TTITLE19=canzone triste (anzone d'amore)
EXTD=YEAR: 2001 ID3G: 0
EXTT0=
EXTT1=
EXTT2=
EXTT3=
EXTT4=
EXTT5=
EXTT6=
EXTT7=
EXTT8=
EXTT9=
EXTT10=
EXTT11=
EXTT12=
EXTT13=
EXTT14=
EXTT15=
EXTT16=
EXTT17=
EXTT18=
EXTT19=
PLAYORDER=
